<svg width="512" height="512" viewBox="0 0 24 24" xmlns="http://www.w3.org/2000/svg" fill="#22c55e">
  <path d="M9.69,2.41,11.3,4a1.86,1.86,0,0,0,1.4.59h.05a1.88,1.88,0,0,0,1.4-.59l1.61-1.61A1,1,0,0,0,15,1H9a1,1,0,0,0-.71,1.41Z"/>
  <path d="M12,5.1a3.49,3.49,0,0,0-3,3.87,1,1,0,0,0,.64.84l4.29,1.84a1,1,0,0,0,1.21-.49A3.49,3.49,0,0,0,12,5.1Z"/>
  <path d="M18.8,11.08,17,13.63a1,1,0,0,0-.24.72V22a1,1,0,0,0,1,1h.1a1,1,0,0,0,.95-.68l2-6.52a1,1,0,0,0-.71-1.27Z"/>
  <path d="M5.2,11.08a1,1,0,0,0-.71,1.27l2,6.52A1,1,0,0,0,7.44,23H7.5a1,1,0,0,0,1-1V14.35a1,1,0,0,0-.24-.72L6.4,11.08A1,1,0,0,0,5.2,11.08Z"/>
</svg>
